<svg xmlns="http://www.w3.org/2000/svg" xml:lang="en" height="664.4pt" width="615.8959999999998pt" viewBox="-90.14800000000001 -335.8 615.8959999999998 664.4"><circle cx="3.3065463576978533e-15" cy="-54.0" r="18.0" style="stroke:black;fill:none;stroke-width:2.0;" /><path d="M 0.0,-0.0 L 2.204364238465236e-15,-36.0 L 2.204364238465236e-15,-36.0 M 4.408728476930472e-15,-72.0 L 4.408728476930472e-15,-72.0 L 6.613092715395707e-15,-108.0" id="na" class="na" style="stroke:black;fill:none;stroke-width:2.0;stroke-linecap:round;stroke-linejoin:round;" /><path d="M 3.600000000000003,-45.0 L -3.599999999999997,-45.0" id="na" class="na" style="stroke:black;fill:none;stroke-width:2.0;stroke-linecap:round;stroke-linejoin:round;" /><path d="M 3.637200993467639e-15,-59.4 L 4.078073841160686e-15,-66.60000000000001" id="na" class="na" style="stroke:black;fill:none;stroke-width:2.0;stroke-linecap:round;stroke-linejoin:round;" /><path d="M 3.600000000000004,-63.0 L -3.599999999999996,-63.0" id="na" class="na" style="stroke:black;fill:none;stroke-width:2.0;stroke-linecap:round;stroke-linejoin:round;" /><path d="M 23.400000000000002,-37.800000000000004 L 23.400000000000006,-81.0" id="na" class="voltage-label arrow U1" style="stroke:black;fill:none;stroke-width:2.0;stroke-linecap:round;stroke-linejoin:round;" /><path d="M 23.400000000000002 -29.0 L 19.800000000000004 -37.8 L 27.000000000000004 -37.8 Z" style="stroke:black;fill:black;stroke-linecap:butt;stroke-linejoin:miter;" class="voltage-label arrow U1" /><path d="M 0.0,-0.0 L -9.919639073093561e-15,54.0 L -1.9839278146187122e-14,108.0" id="na" class="na" style="stroke:black;fill:none;stroke-width:2.0;stroke-linecap:round;stroke-linejoin:round;" /><path d="M 6.613092715395707e-15,-108.0 L 9.919639073093561e-15,-162.0 L 1.3226185430791413e-14,-216.0" id="na" class="na" style="stroke:black;fill:none;stroke-width:2.0;stroke-linecap:round;stroke-linejoin:round;" /><path d="M 1.3226185430791413e-14,-216.0 L 1.6532731788489267e-14,-270.0 L 1.9839278146187122e-14,-324.0" id="na" class="na" style="stroke:black;fill:none;stroke-width:2.0;stroke-linecap:round;stroke-linejoin:round;" /><path d="M 1.9839278146187122e-14,-324.0 L 54.000000000000014,-324.0 L 108.00000000000001,-324.0" id="na" class="na" style="stroke:black;fill:none;stroke-width:2.0;stroke-linecap:round;stroke-linejoin:round;" /><path d="M 108.00000000000001,-324.0 L 162.0,-324.0 L 216.0,-324.0" id="na" class="na" style="stroke:black;fill:none;stroke-width:2.0;stroke-linecap:round;stroke-linejoin:round;" /><path d="M 216.0,-324.0 L 216.0,-288.0 L 225.0,-288.0 L 225.0,-252.0 L 207.0,-252.0 L 207.0,-288.0 L 216.0,-288.0 M 216.0,-252.0 L 215.99999999999997,-216.0" id="R1" class="20.0 \Omega" style="stroke:black;fill:transparent;stroke-width:2.0;stroke-linecap:round;stroke-linejoin:round;" /><path d="M 230.4,-297.0 L 230.39999999999998,-253.79999999999998" id="na" class="voltage-label arrow U1" style="stroke:black;fill:none;stroke-width:2.0;stroke-linecap:round;stroke-linejoin:round;" /><path d="M 230.39999999999998 -245.0 L 226.79999999999998 -253.8 L 233.99999999999997 -253.8 Z" style="stroke:black;fill:black;stroke-linecap:butt;stroke-linejoin:miter;" class="voltage-label arrow U1" /><path d="M 215.99999999999997,-216.0 L 215.99999999999997,-180.0 L 224.99999999999997,-180.0 L 224.99999999999997,-144.0 L 206.99999999999997,-144.0 L 206.99999999999997,-180.0 L 215.99999999999997,-180.0 M 215.99999999999997,-144.0 L 215.99999999999994,-108.0" id="R2" class="20.0 \Omega" style="stroke:black;fill:transparent;stroke-width:2.0;stroke-linecap:round;stroke-linejoin:round;" /><path d="M 230.39999999999998,-189.0 L 230.39999999999995,-145.79999999999998" id="na" class="voltage-label arrow U2" style="stroke:black;fill:none;stroke-width:2.0;stroke-linecap:round;stroke-linejoin:round;" /><path d="M 230.39999999999995 -137.0 L 226.79999999999995 -145.8 L 233.99999999999994 -145.8 Z" style="stroke:black;fill:black;stroke-linecap:butt;stroke-linejoin:miter;" class="voltage-label arrow U2" /><path d="M 215.99999999999997,-216.0 L 269.99999999999994,-216.0 L 324.0,-216.0" id="na" class="na" style="stroke:black;fill:none;stroke-width:2.0;stroke-linecap:round;stroke-linejoin:round;" /><path d="M 215.99999999999994,-108.0 L 215.99999999999994,-72.0 L 224.99999999999994,-72.0 L 224.99999999999994,-36.0 L 206.99999999999994,-36.0 L 206.99999999999994,-72.0 L 215.99999999999994,-72.0 M 215.99999999999994,-36.0 L 215.99999999999991,-0.0" id="R4" class="20.0 \Omega" style="stroke:black;fill:transparent;stroke-width:2.0;stroke-linecap:round;stroke-linejoin:round;" /><path d="M 230.39999999999995,-81.0 L 230.39999999999992,-37.800000000000004" id="na" class="voltage-label arrow U4" style="stroke:black;fill:none;stroke-width:2.0;stroke-linecap:round;stroke-linejoin:round;" /><path d="M 230.39999999999992 -29.0 L 226.79999999999993 -37.800000000000004 L 233.99999999999991 -37.8 Z" style="stroke:black;fill:black;stroke-linecap:butt;stroke-linejoin:miter;" class="voltage-label arrow U4" /><path d="M 324.0,-216.0 L 324.0,-180.0 L 333.0,-180.0 L 333.0,-144.0 L 315.0,-144.0 L 315.0,-180.0 L 324.0,-180.0 M 324.0,-144.0 L 324.0,-108.0" id="R3" class="1.0 R_{3} \Omega" style="stroke:black;fill:transparent;stroke-width:2.0;stroke-linecap:round;stroke-linejoin:round;" /><path d="M 338.40000000000003,-189.0 L 338.40000000000003,-145.79999999999998" id="na" class="voltage-label arrow U3" style="stroke:black;fill:none;stroke-width:2.0;stroke-linecap:round;stroke-linejoin:round;" /><path d="M 338.40000000000003 -137.0 L 334.8 -145.8 L 342.00000000000006 -145.8 Z" style="stroke:black;fill:black;stroke-linecap:butt;stroke-linejoin:miter;" class="voltage-label arrow U3" /><path d="M 324.0,-108.0 L 269.99999999999994,-108.0 L 215.99999999999994,-108.00000000000001" id="na" class="na" style="stroke:black;fill:none;stroke-width:2.0;stroke-linecap:round;stroke-linejoin:round;" /><path d="M 215.99999999999991,-0.0 L 161.99999999999991,-6.613092715395707e-15 L 107.9999999999999,-1.3226185430791413e-14" id="na" class="na" style="stroke:black;fill:none;stroke-width:2.0;stroke-linecap:round;stroke-linejoin:round;" /><path d="M 215.99999999999991,-0.0 L 269.9999999999999,-0.0 L 323.9999999999999,-0.0" id="na" class="na" style="stroke:black;fill:none;stroke-width:2.0;stroke-linecap:round;stroke-linejoin:round;" /><path d="M 215.99999999999991,-0.0 L 215.99999999999991,36.0 L 224.99999999999991,36.0 L 224.99999999999991,72.0 L 206.99999999999991,72.0 L 206.99999999999991,36.0 L 215.99999999999991,36.0 M 215.99999999999991,72.0 L 215.9999999999999,108.0" id="R6" class="1.0 R_{6} \Omega" style="stroke:black;fill:transparent;stroke-width:2.0;stroke-linecap:round;stroke-linejoin:round;" /><path d="M 230.39999999999992,27.0 L 230.3999999999999,70.2" id="na" class="voltage-label arrow U6" style="stroke:black;fill:none;stroke-width:2.0;stroke-linecap:round;stroke-linejoin:round;" /><path d="M 230.3999999999999 79.0 L 226.7999999999999 70.19999999999999 L 233.9999999999999 70.2 Z" style="stroke:black;fill:black;stroke-linecap:butt;stroke-linejoin:miter;" class="voltage-label arrow U6" /><path d="M 107.9999999999999,-1.3226185430791413e-14 L 107.9999999999999,35.999999999999986 L 116.9999999999999,35.999999999999986 L 116.99999999999989,71.99999999999999 L 98.99999999999989,71.99999999999999 L 98.9999999999999,35.999999999999986 L 107.9999999999999,35.999999999999986 M 107.99999999999989,71.99999999999999 L 107.99999999999989,107.99999999999999" id="R5" class="1.0 R_{5} \Omega" style="stroke:black;fill:transparent;stroke-width:2.0;stroke-linecap:round;stroke-linejoin:round;" /><path d="M 122.39999999999989,26.999999999999986 L 122.39999999999989,70.19999999999999" id="na" class="voltage-label arrow U5" style="stroke:black;fill:none;stroke-width:2.0;stroke-linecap:round;stroke-linejoin:round;" /><path d="M 122.39999999999989 78.99999999999999 L 118.7999999999999 70.19999999999997 L 125.99999999999989 70.19999999999997 Z" style="stroke:black;fill:black;stroke-linecap:butt;stroke-linejoin:miter;" class="voltage-label arrow U5" /><path d="M 323.9999999999999,-0.0 L 323.9999999999999,36.0 L 332.9999999999999,36.0 L 332.9999999999999,72.0 L 314.9999999999999,72.0 L 314.9999999999999,36.0 L 323.9999999999999,36.0 M 323.9999999999999,72.0 L 323.9999999999999,108.0" id="R7" class="1.0 R_{7} \Omega" style="stroke:black;fill:transparent;stroke-width:2.0;stroke-linecap:round;stroke-linejoin:round;" /><path d="M 338.39999999999986,27.0 L 338.39999999999986,70.2" id="na" class="voltage-label arrow U7" style="stroke:black;fill:none;stroke-width:2.0;stroke-linecap:round;stroke-linejoin:round;" /><path d="M 338.39999999999986 79.0 L 334.79999999999984 70.19999999999999 L 341.9999999999999 70.19999999999999 Z" style="stroke:black;fill:black;stroke-linecap:butt;stroke-linejoin:miter;" class="voltage-label arrow U7" /><path d="M 107.99999999999989,107.99999999999999 L 107.99999999999987,162.0 L 107.99999999999987,216.0" id="na" class="na" style="stroke:black;fill:none;stroke-width:2.0;stroke-linecap:round;stroke-linejoin:round;" /><path d="M 215.9999999999999,108.0 L 215.9999999999999,162.0 L 215.99999999999983,216.0" id="na" class="na" style="stroke:black;fill:none;stroke-width:2.0;stroke-linecap:round;stroke-linejoin:round;" /><path d="M 323.9999999999999,108.0 L 323.9999999999999,144.0 L 332.9999999999999,144.0 L 332.9999999999999,180.0 L 314.9999999999999,180.0 L 314.9999999999999,144.0 L 323.9999999999999,144.0 M 323.9999999999999,180.0 L 323.9999999999999,216.0" id="R8" class="1.0 R_{8} \Omega" style="stroke:black;fill:transparent;stroke-width:2.0;stroke-linecap:round;stroke-linejoin:round;" /><path d="M 338.39999999999986,135.0 L 338.39999999999986,178.20000000000002" id="na" class="voltage-label arrow U8" style="stroke:black;fill:none;stroke-width:2.0;stroke-linecap:round;stroke-linejoin:round;" /><path d="M 338.39999999999986 187.0 L 334.79999999999984 178.2 L 341.9999999999999 178.2 Z" style="stroke:black;fill:black;stroke-linecap:butt;stroke-linejoin:miter;" class="voltage-label arrow U8" /><path d="M 323.9999999999999,108.0 L 377.9999999999999,108.0 L 431.9999999999999,108.0" id="na" class="na" style="stroke:black;fill:none;stroke-width:2.0;stroke-linecap:round;stroke-linejoin:round;" /><path d="M 431.9999999999999,108.0 L 431.9999999999999,144.0 L 440.9999999999999,144.0 L 440.9999999999999,180.0 L 422.9999999999999,180.0 L 422.9999999999999,144.0 L 431.9999999999999,144.0 M 431.9999999999999,180.0 L 431.9999999999999,216.0" id="R9" class="1.0 R_{9} \Omega" style="stroke:black;fill:transparent;stroke-width:2.0;stroke-linecap:round;stroke-linejoin:round;" /><path d="M 446.39999999999986,135.0 L 446.39999999999986,178.20000000000002" id="na" class="voltage-label arrow U9" style="stroke:black;fill:none;stroke-width:2.0;stroke-linecap:round;stroke-linejoin:round;" /><path d="M 446.39999999999986 187.0 L 442.79999999999984 178.2 L 449.9999999999999 178.2 Z" style="stroke:black;fill:black;stroke-linecap:butt;stroke-linejoin:miter;" class="voltage-label arrow U9" /><path d="M 323.9999999999999,216.0 L 269.9999999999999,216.0 L 215.99999999999983,216.0" id="na" class="na" style="stroke:black;fill:none;stroke-width:2.0;stroke-linecap:round;stroke-linejoin:round;" /><path d="M -1.9839278146187122e-14,108.0 L -2.9758917219280685e-14,162.0 L -3.9678556292374245e-14,216.0" id="na" class="na" style="stroke:black;fill:none;stroke-width:2.0;stroke-linecap:round;stroke-linejoin:round;" /><path d="M 431.9999999999999,216.0 L 377.9999999999999,216.0 L 323.9999999999999,216.0" id="na" class="na" style="stroke:black;fill:none;stroke-width:2.0;stroke-linecap:round;stroke-linejoin:round;" /><path d="M 215.99999999999983,216.0 L 215.99999999999983,270.0 L 215.9999999999998,324.0" id="na" class="na" style="stroke:black;fill:none;stroke-width:2.0;stroke-linecap:round;stroke-linejoin:round;" /><path d="M 107.99999999999987,216.0 L 161.9999999999999,216.0 L 215.99999999999983,216.0" id="na" class="na" style="stroke:black;fill:none;stroke-width:2.0;stroke-linecap:round;stroke-linejoin:round;" /><path d="M 215.9999999999998,324.0 L 161.9999999999998,324.0 L 107.9999999999998,324.0" id="na" class="na" style="stroke:black;fill:none;stroke-width:2.0;stroke-linecap:round;stroke-linejoin:round;" /><path d="M 107.9999999999998,324.0 L 53.99999999999981,324.0 L -1.9184653865522705e-13,324.0" id="na" class="na" style="stroke:black;fill:none;stroke-width:2.0;stroke-linecap:round;stroke-linejoin:round;" /><path d="M -1.9184653865522705e-13,324.0 L -1.2858794896777075e-13,270.0 L -6.532935928031445e-14,216.0" id="na" class="na" style="stroke:black;fill:none;stroke-width:2.0;stroke-linecap:round;stroke-linejoin:round;" /><text x="-14.399999999999999" y="-45.2" fill="black" font-size="14.0" font-family="sans" text-anchor="end" class="element-label V1"><tspan x="-14.399999999999999" dy="14.0">###.### ##</tspan></text><text x="27.000000000000004" y="-52.400000000000006" fill="black" font-size="14.0" font-family="sans" text-anchor="start" class="voltage-label arrow Uges"><tspan x="27.000000000000004" dy="14.0">###.### ##</tspan></text><text x="203.39999999999998" y="-290.0" fill="black" font-size="14.0" font-family="sans" text-anchor="end" class="element-label R1"><tspan x="203.39999999999998" dy="14.0">###.### ##</tspan></text><text x="234.0" y="-268.4" fill="black" font-size="14.0" font-family="sans" text-anchor="start" class="voltage-label arrow U1"><tspan x="234.0" dy="14.0">###.### ##</tspan></text><text x="203.39999999999995" y="-182.0" fill="black" font-size="14.0" font-family="sans" text-anchor="end" class="element-label R2"><tspan x="203.39999999999995" dy="14.0">###.### ##</tspan></text><text x="233.99999999999997" y="-160.39999999999998" fill="black" font-size="14.0" font-family="sans" text-anchor="start" class="voltage-label arrow U2"><tspan x="233.99999999999997" dy="14.0">###.### ##</tspan></text><text x="203.39999999999992" y="-73.99999999999999" fill="black" font-size="14.0" font-family="sans" text-anchor="end" class="element-label R4"><tspan x="203.39999999999992" dy="14.0">###.### ##</tspan></text><text x="233.99999999999994" y="-52.4" fill="black" font-size="14.0" font-family="sans" text-anchor="start" class="voltage-label arrow U4"><tspan x="233.99999999999994" dy="14.0">###.### ##</tspan></text><text x="311.40000000000003" y="-182.0" fill="black" font-size="14.0" font-family="sans" text-anchor="end" class="element-label R3"><tspan x="311.40000000000003" dy="14.0">###.### ##</tspan></text><text x="342.0" y="-160.39999999999998" fill="black" font-size="14.0" font-family="sans" text-anchor="start" class="voltage-label arrow U3"><tspan x="342.0" dy="14.0">###.### ##</tspan></text><text x="203.3999999999999" y="34.0" fill="black" font-size="14.0" font-family="sans" text-anchor="end" class="element-label R6"><tspan x="203.3999999999999" dy="14.0">###.### ##</tspan></text><text x="233.99999999999991" y="55.599999999999994" fill="black" font-size="14.0" font-family="sans" text-anchor="start" class="voltage-label arrow U6"><tspan x="233.99999999999991" dy="14.0">###.### ##</tspan></text><text x="95.3999999999999" y="33.999999999999986" fill="black" font-size="14.0" font-family="sans" text-anchor="end" class="element-label R5"><tspan x="95.3999999999999" dy="14.0">###.### ##</tspan></text><text x="125.99999999999989" y="55.59999999999998" fill="black" font-size="14.0" font-family="sans" text-anchor="start" class="voltage-label arrow U5"><tspan x="125.99999999999989" dy="14.0">###.### ##</tspan></text><text x="311.39999999999986" y="34.0" fill="black" font-size="14.0" font-family="sans" text-anchor="end" class="element-label R7"><tspan x="311.39999999999986" dy="14.0">###.### ##</tspan></text><text x="341.9999999999999" y="55.599999999999994" fill="black" font-size="14.0" font-family="sans" text-anchor="start" class="voltage-label arrow U7"><tspan x="341.9999999999999" dy="14.0">###.### ##</tspan></text><text x="311.39999999999986" y="142.0" fill="black" font-size="14.0" font-family="sans" text-anchor="end" class="element-label R8"><tspan x="311.39999999999986" dy="14.0">###.### ##</tspan></text><text x="341.9999999999999" y="163.60000000000002" fill="black" font-size="14.0" font-family="sans" text-anchor="start" class="voltage-label arrow U8"><tspan x="341.9999999999999" dy="14.0">###.### ##</tspan></text><text x="419.39999999999986" y="142.0" fill="black" font-size="14.0" font-family="sans" text-anchor="end" class="element-label R9"><tspan x="419.39999999999986" dy="14.0">###.### ##</tspan></text><text x="449.9999999999999" y="163.60000000000002" fill="black" font-size="14.0" font-family="sans" text-anchor="start" class="voltage-label arrow U9"><tspan x="449.9999999999999" dy="14.0">###.### ##</tspan></text><path d="M 8.817456953860937e-16,-14.399999999999997 L 8.81745695386094e-16,-14.399999999999999" id="na" class="current-label arrow I1" style="stroke:black;fill:none;stroke-width:2.0;stroke-linecap:round;stroke-linejoin:round;" /><path d="M 1.4205902870109293e-15 -23.2 L 5.4 -14.400000000000002 L -5.399999999999999 -14.400000000000002 Z" style="stroke:black;fill:black;stroke-linecap:butt;stroke-linejoin:miter;" class="current-label arrow I1" /><text x="-10.799999999999997" y="-29.0" fill="black" font-size="14.0" font-family="sans" text-anchor="end" class="current-label arrow Iges"><tspan x="-10.799999999999997" dy="14.0">###.### ##</tspan></text><path d="M 216.0,-309.59999999999997 L 216.0,-309.6" id="na" class="current-label arrow I1" style="stroke:black;fill:none;stroke-width:2.0;stroke-linecap:round;stroke-linejoin:round;" /><path d="M 216.0 -300.8 L 210.6 -309.59999999999997 L 221.4 -309.59999999999997 Z" style="stroke:black;fill:black;stroke-linecap:butt;stroke-linejoin:miter;" class="current-label arrow I1" /><text x="205.20000000000002" y="-313.4" fill="black" font-size="14.0" font-family="sans" text-anchor="end" class="current-label arrow I1"><tspan x="205.20000000000002" dy="14.0">###.### ##</tspan></text><path d="M 215.99999999999997,-201.6 L 215.99999999999997,-201.6" id="na" class="current-label arrow I2" style="stroke:black;fill:none;stroke-width:2.0;stroke-linecap:round;stroke-linejoin:round;" /><path d="M 215.99999999999997 -192.79999999999998 L 210.59999999999997 -201.6 L 221.39999999999998 -201.6 Z" style="stroke:black;fill:black;stroke-linecap:butt;stroke-linejoin:miter;" class="current-label arrow I2" /><text x="205.2" y="-205.39999999999998" fill="black" font-size="14.0" font-family="sans" text-anchor="end" class="current-label arrow I2"><tspan x="205.2" dy="14.0">###.### ##</tspan></text><path d="M 215.99999999999994,-93.60000000000001 L 215.99999999999994,-93.6" id="na" class="current-label arrow I4" style="stroke:black;fill:none;stroke-width:2.0;stroke-linecap:round;stroke-linejoin:round;" /><path d="M 215.99999999999994 -84.8 L 210.59999999999994 -93.60000000000001 L 221.39999999999995 -93.60000000000001 Z" style="stroke:black;fill:black;stroke-linecap:butt;stroke-linejoin:miter;" class="current-label arrow I4" /><text x="205.19999999999993" y="-97.4" fill="black" font-size="14.0" font-family="sans" text-anchor="end" class="current-label arrow I4"><tspan x="205.19999999999993" dy="14.0">###.### ##</tspan></text><path d="M 324.0,-201.6 L 324.0,-201.6" id="na" class="current-label arrow I3" style="stroke:black;fill:none;stroke-width:2.0;stroke-linecap:round;stroke-linejoin:round;" /><path d="M 324.0 -192.79999999999998 L 318.6 -201.6 L 329.4 -201.6 Z" style="stroke:black;fill:black;stroke-linecap:butt;stroke-linejoin:miter;" class="current-label arrow I3" /><text x="313.2" y="-205.39999999999998" fill="black" font-size="14.0" font-family="sans" text-anchor="end" class="current-label arrow I3"><tspan x="313.2" dy="14.0">###.### ##</tspan></text><path d="M 215.99999999999991,14.399999999999997 L 215.99999999999991,14.399999999999999" id="na" class="current-label arrow I6" style="stroke:black;fill:none;stroke-width:2.0;stroke-linecap:round;stroke-linejoin:round;" /><path d="M 215.99999999999991 23.2 L 210.5999999999999 14.400000000000002 L 221.39999999999992 14.400000000000002 Z" style="stroke:black;fill:black;stroke-linecap:butt;stroke-linejoin:miter;" class="current-label arrow I6" /><text x="205.1999999999999" y="10.6" fill="black" font-size="14.0" font-family="sans" text-anchor="end" class="current-label arrow I6"><tspan x="205.1999999999999" dy="14.0">###.### ##</tspan></text><path d="M 107.99999999999989,14.39999999999998 L 107.99999999999989,14.399999999999983" id="na" class="current-label arrow I5" style="stroke:black;fill:none;stroke-width:2.0;stroke-linecap:round;stroke-linejoin:round;" /><path d="M 107.99999999999989 23.19999999999998 L 102.59999999999988 14.399999999999984 L 113.39999999999989 14.399999999999984 Z" style="stroke:black;fill:black;stroke-linecap:butt;stroke-linejoin:miter;" class="current-label arrow I5" /><text x="97.19999999999989" y="10.599999999999982" fill="black" font-size="14.0" font-family="sans" text-anchor="end" class="current-label arrow I5"><tspan x="97.19999999999989" dy="14.0">###.### ##</tspan></text><path d="M 323.9999999999999,14.399999999999997 L 323.9999999999999,14.399999999999999" id="na" class="current-label arrow I7" style="stroke:black;fill:none;stroke-width:2.0;stroke-linecap:round;stroke-linejoin:round;" /><path d="M 323.9999999999999 23.2 L 318.5999999999999 14.400000000000002 L 329.39999999999986 14.400000000000002 Z" style="stroke:black;fill:black;stroke-linecap:butt;stroke-linejoin:miter;" class="current-label arrow I7" /><text x="313.1999999999998" y="10.6" fill="black" font-size="14.0" font-family="sans" text-anchor="end" class="current-label arrow I7"><tspan x="313.1999999999998" dy="14.0">###.### ##</tspan></text><path d="M 323.9999999999999,122.39999999999999 L 323.9999999999999,122.4" id="na" class="current-label arrow I8" style="stroke:black;fill:none;stroke-width:2.0;stroke-linecap:round;stroke-linejoin:round;" /><path d="M 323.9999999999999 131.20000000000002 L 318.5999999999999 122.4 L 329.39999999999986 122.4 Z" style="stroke:black;fill:black;stroke-linecap:butt;stroke-linejoin:miter;" class="current-label arrow I8" /><text x="313.1999999999998" y="118.60000000000001" fill="black" font-size="14.0" font-family="sans" text-anchor="end" class="current-label arrow I8"><tspan x="313.1999999999998" dy="14.0">###.### ##</tspan></text><path d="M 431.9999999999999,122.39999999999999 L 431.9999999999999,122.4" id="na" class="current-label arrow I9" style="stroke:black;fill:none;stroke-width:2.0;stroke-linecap:round;stroke-linejoin:round;" /><path d="M 431.9999999999999 131.20000000000002 L 426.5999999999999 122.4 L 437.39999999999986 122.4 Z" style="stroke:black;fill:black;stroke-linecap:butt;stroke-linejoin:miter;" class="current-label arrow I9" /><text x="421.1999999999998" y="118.60000000000001" fill="black" font-size="14.0" font-family="sans" text-anchor="end" class="current-label arrow I9"><tspan x="421.1999999999998" dy="14.0">###.### ##</tspan></text><circle cx="215.99999999999997" cy="-216.0" r="2.6999999999999997" style="stroke:black;fill:black;stroke-width:2.0;" /><circle cx="215.99999999999994" cy="-108.0" r="2.6999999999999997" style="stroke:black;fill:black;stroke-width:2.0;" /><circle cx="215.99999999999991" cy="-0.0" r="2.6999999999999997" style="stroke:black;fill:black;stroke-width:2.0;" /><circle cx="323.9999999999999" cy="108.0" r="2.6999999999999997" style="stroke:black;fill:black;stroke-width:2.0;" /><circle cx="215.99999999999983" cy="216.0" r="2.6999999999999997" style="stroke:black;fill:black;stroke-width:2.0;" /><circle cx="323.9999999999999" cy="216.0" r="2.6999999999999997" style="stroke:black;fill:black;stroke-width:2.0;" /></svg>